<?xml version="1.0" encoding="UTF-8"?>
<svg width="512pt" height="512pt" version="1.1" viewBox="0 0 512 512" xmlns="http://www.w3.org/2000/svg">
 <path d="m253.44 463.36c-79.359 0-143.36-64-143.36-143.36 0-38.91 15.871-74.238 40.961-100.35l-0.003907-73.727c0-56.32 46.078-102.4 102.4-102.4s102.4 46.078 102.4 102.4v73.727c25.09 25.602 40.961 61.441 40.961 100.35 0.003906 79.359-63.996 143.36-143.36 143.36zm-25.602-87.039c0 5.6328 5.1211 10.238 11.266 10.238h28.672c6.1445 0 11.266-4.6094 11.266-10.238l-8.7031-61.441c8.1914-5.6328 13.824-14.848 13.824-25.602 0-16.895-13.824-30.719-30.719-30.719-16.895 0-30.719 13.824-30.719 30.719 0 10.754 5.6328 20.48 13.824 25.602zm76.801-230.4c0-28.16-23.039-51.199-51.199-51.199s-51.199 23.039-51.199 51.199v39.938c15.871-6.1445 33.281-9.2148 51.199-9.2148 17.922 0 35.328 3.5859 51.199 9.2148z" fill="#fff" fill-rule="evenodd"/>
</svg>
