<svg id="visual" viewBox="0 0 900 600" width="900" height="600" xmlns="http://www.w3.org/2000/svg" xmlns:xlink="http://www.w3.org/1999/xlink" version="1.1"><rect width="900" height="600" fill="#141414"></rect><g><g transform="translate(196 358)"><path d="M54.6 -17.3C62.3 5.7 54 34.4 35 48.2C16 62 -13.8 61 -34.9 46.1C-55.9 31.2 -68.3 2.5 -61 -20C-53.8 -42.5 -26.9 -58.9 -1.7 -58.3C23.5 -57.8 47 -40.3 54.6 -17.3Z" stroke="#2d2d2d" fill="none" stroke-width="20"></path></g><g transform="translate(663 205)"><path d="M24.5 -7.9C28.2 3.7 25.4 17.4 17.3 23.2C9.2 28.9 -4.3 26.7 -12.9 19.9C-21.6 13.1 -25.5 1.8 -22.5 -8.7C-19.6 -19.2 -9.8 -28.8 0.3 -28.9C10.3 -29 20.7 -19.6 24.5 -7.9Z" stroke="#2d2d2d" fill="none" stroke-width="20"></path></g><g transform="translate(498 74)"><path d="M44.7 -16.2C50 1.8 40.9 22.9 25.1 34.3C9.3 45.8 -13.4 47.7 -29.9 36.7C-46.5 25.7 -56.9 1.9 -50.9 -17.1C-44.9 -36.2 -22.5 -50.4 -1.4 -50C19.7 -49.5 39.3 -34.3 44.7 -16.2Z" stroke="#2d2d2d" fill="none" stroke-width="20"></path></g><g transform="translate(848 230)"><path d="M34 -12.1C38.9 3.9 34 22.1 22 31C9.9 40 -9.5 39.8 -22.2 30.6C-34.9 21.3 -41.1 3 -36.3 -13C-31.5 -29 -15.8 -42.7 -0.6 -42.5C14.6 -42.3 29.1 -28.2 34 -12.1Z" stroke="#2d2d2d" fill="none" stroke-width="20"></path></g><g transform="translate(381 470)"><path d="M23.1 -8.4C25.7 0.6 20.7 11.1 13 16.5C5.2 21.8 -5.4 21.9 -12.7 16.7C-20.1 11.6 -24.2 1.2 -21.5 -7.8C-18.9 -16.8 -9.4 -24.4 0.4 -24.6C10.2 -24.7 20.4 -17.3 23.1 -8.4Z" stroke="#2d2d2d" fill="none" stroke-width="20"></path></g><g transform="translate(735 41)"><path d="M30.1 -9.5C34 2.2 28.6 17.2 18 25C7.3 32.8 -8.8 33.5 -18.9 26.1C-29 18.7 -33.2 3.3 -29.1 -8.8C-24.9 -20.8 -12.5 -29.5 0.3 -29.6C13.1 -29.7 26.2 -21.2 30.1 -9.5Z" stroke="#2d2d2d" fill="none" stroke-width="20"></path></g><g transform="translate(709 455)"><path d="M21.7 -7.5C24.8 2.8 22 14.5 13.9 20.7C5.9 26.9 -7.2 27.5 -14.7 21.7C-22.2 15.9 -24 3.8 -20.6 -6.8C-17.2 -17.4 -8.6 -26.5 0.3 -26.6C9.2 -26.7 18.5 -17.8 21.7 -7.5Z" stroke="#2d2d2d" fill="none" stroke-width="20"></path></g><g transform="translate(528 373)"><path d="M24.4 -8.3C27.5 1.9 23.3 14 14.7 20.3C6 26.6 -7 27.1 -15.3 21C-23.7 14.9 -27.4 2.4 -24.1 -8C-20.8 -18.3 -10.4 -26.5 0.1 -26.6C10.6 -26.6 21.2 -18.5 24.4 -8.3Z" stroke="#2d2d2d" fill="none" stroke-width="20"></path></g><g transform="translate(108 578)"><path d="M32.7 -9.3C37.2 3.3 32.1 20.2 20.6 28.7C9.1 37.1 -8.9 37 -19.6 28.8C-30.3 20.6 -33.7 4.2 -29.2 -8.3C-24.8 -20.8 -12.4 -29.5 0.9 -29.8C14.1 -30.1 28.2 -21.9 32.7 -9.3Z" stroke="#2d2d2d" fill="none" stroke-width="20"></path></g><g transform="translate(130 196)"><path d="M45 -14C51.5 5.2 45 29.1 29.5 40.3C14 51.5 -10.5 49.9 -26.9 37.8C-43.4 25.6 -51.7 3.1 -45.9 -15.3C-40 -33.7 -20 -47.9 -0.4 -47.8C19.3 -47.6 38.6 -33.2 45 -14Z" stroke="#2d2d2d" fill="none" stroke-width="20"></path></g><g transform="translate(266 70)"><path d="M39.2 -13.4C44.2 2.6 37 21.8 23.8 31C10.5 40.3 -8.8 39.5 -22.5 29.8C-36.2 20.1 -44.2 1.6 -39.5 -14C-34.9 -29.5 -17.4 -42.1 -0.2 -42C17.1 -42 34.2 -29.3 39.2 -13.4Z" stroke="#2d2d2d" fill="none" stroke-width="20"></path></g><g transform="translate(556 554)"><path d="M42.2 -12.2C48.7 6.4 43.9 30.1 29.7 40.2C15.6 50.3 -8 46.8 -24.3 34.7C-40.6 22.5 -49.8 1.7 -44.5 -15.1C-39.3 -31.9 -19.6 -44.6 -0.9 -44.3C17.8 -44 35.6 -30.7 42.2 -12.2Z" stroke="#2d2d2d" fill="none" stroke-width="20"></path></g><g transform="translate(896 404)"><path d="M43.4 -11.9C49.5 4.5 42.9 27.3 28.3 37.6C13.6 48 -9.1 45.9 -22.9 35C-36.8 24.1 -41.8 4.5 -36.5 -11C-31.2 -26.4 -15.6 -37.7 1.6 -38.2C18.7 -38.7 37.4 -28.4 43.4 -11.9Z" stroke="#2d2d2d" fill="none" stroke-width="20"></path></g><g transform="translate(14 411)"><path d="M38.6 -13.3C42.8 0.3 33.9 17.3 20.9 26.1C7.9 34.9 -9.1 35.4 -20.8 27.2C-32.5 19.1 -38.9 2.2 -34.6 -11.7C-30.2 -25.6 -15.1 -36.4 1.1 -36.7C17.2 -37.1 34.5 -26.9 38.6 -13.3Z" stroke="#2d2d2d" fill="none" stroke-width="20"></path></g><g transform="translate(822 588)"><path d="M36.1 -10.6C41.3 4.2 36.2 23.5 23.8 32.5C11.3 41.5 -8.5 40.2 -21.7 30.5C-34.8 20.8 -41.3 2.6 -36.6 -11.5C-31.9 -25.7 -15.9 -35.9 -0.2 -35.9C15.5 -35.8 30.9 -25.4 36.1 -10.6Z" stroke="#2d2d2d" fill="none" stroke-width="20"></path></g><g transform="translate(349 242)"><path d="M23.1 -7.1C26.1 1.6 21.9 13 14.3 18.2C6.7 23.4 -4.4 22.3 -11.5 16.9C-18.5 11.5 -21.7 1.7 -19.1 -6.4C-16.5 -14.6 -8.3 -21 0.9 -21.3C10.1 -21.6 20.2 -15.7 23.1 -7.1Z" stroke="#2d2d2d" fill="none" stroke-width="20"></path></g><g transform="translate(76 28)"><path d="M33 -12.3C37.2 2.2 31.2 18.4 18.8 27.9C6.4 37.5 -12.4 40.2 -24.7 31.8C-37 23.4 -42.7 3.8 -37.5 -12.1C-32.3 -28 -16.2 -40.2 -0.9 -39.9C14.4 -39.6 28.8 -26.8 33 -12.3Z" stroke="#2d2d2d" fill="none" stroke-width="20"></path></g></g></svg>